<svg xmlns="http://www.w3.org/2000/svg" viewBox="0 0 400 500" width="400" height="500">
  <rect width="400" height="500" fill="#c7a878"/>
  <g opacity="0.08" stroke="#3d2a1f" stroke-width="1">
    <line x1="0" y1="40" x2="400" y2="40"/><line x1="0" y1="80" x2="400" y2="80"/>
    <line x1="0" y1="120" x2="400" y2="120"/><line x1="0" y1="160" x2="400" y2="160"/>
    <line x1="0" y1="200" x2="400" y2="200"/><line x1="0" y1="240" x2="400" y2="240"/>
    <line x1="0" y1="280" x2="400" y2="280"/><line x1="0" y1="320" x2="400" y2="320"/>
    <line x1="0" y1="360" x2="400" y2="360"/><line x1="0" y1="400" x2="400" y2="400"/>
    <line x1="0" y1="440" x2="400" y2="440"/>
  </g>
  <g fill="none" stroke="#3d2a1f" stroke-width="2.2" stroke-linejoin="round" stroke-linecap="round">
    <polygon points="170,108 200,140 230,108 245,120 210,150 210,430 190,430 190,150 155,120"/>
    <polygon points="120,112 60,150 70,300 95,300 100,165 130,150"/>
    <polygon points="280,112 340,150 330,300 305,300 300,165 270,150"/>
    <polygon points="118,150 282,150 300,430 100,430"/>
    <line x1="182" y1="170" x2="182" y2="415"/>
    <line x1="218" y1="170" x2="218" y2="415"/>
    <line x1="105" y1="292" x2="295" y2="292"/>
    <rect x="188" y="285" width="24" height="14" rx="2"/>
    <circle cx="182" cy="200" r="3.5" fill="#3d2a1f"/>
    <circle cx="182" cy="240" r="3.5" fill="#3d2a1f"/>
    <circle cx="182" cy="330" r="3.5" fill="#3d2a1f"/>
    <circle cx="182" cy="370" r="3.5" fill="#3d2a1f"/>
    <circle cx="218" cy="200" r="3.5" fill="#3d2a1f"/>
    <circle cx="218" cy="240" r="3.5" fill="#3d2a1f"/>
    <circle cx="218" cy="330" r="3.5" fill="#3d2a1f"/>
    <circle cx="218" cy="370" r="3.5" fill="#3d2a1f"/>
  </g>
  <text x="200" y="465" text-anchor="middle" font-family="Georgia, 'Times New Roman', serif" font-size="15" letter-spacing="3" fill="#3d2a1f">TRENCH CAMEL</text>
  <text x="200" y="484" text-anchor="middle" font-family="Georgia, 'Times New Roman', serif" font-size="10" letter-spacing="2" fill="#3d2a1f99">PHOTO À VENIR</text>
</svg>
